<?xml version="1.0" standalone="no"?>
<!DOCTYPE svg PUBLIC "-//W3C//DTD SVG 20010904//EN"
 "http://www.w3.org/TR/2001/REC-SVG-20010904/DTD/svg10.dtd">
<svg version="1.0" xmlns="http://www.w3.org/2000/svg"
 width="700.000000pt" height="700.000000pt" viewBox="0 0 700.000000 700.000000"
 preserveAspectRatio="xMidYMid meet">
<metadata>
Created by potrace 1.11, written by Peter Selinger 2001-2013
</metadata>
<g transform="translate(0.000000,700.000000) scale(0.100000,-0.100000)"
fill="#000000" stroke="none">
<path d="M1668 4930 c-75 -22 -125 -88 -131 -170 -4 -66 -1 -66 -128 -6 -200
93 -191 90 -224 77 -127 -50 -501 -166 -595 -185 -191 -38 -282 -91 -218 -128
18 -10 141 -13 583 -15 308 -1 565 -2 570 -2 6 -1 11 -48 12 -121 1 -110 3
-123 27 -165 18 -29 41 -53 69 -67 42 -21 47 -21 620 -22 l577 0 0 -110 0
-111 -32 -14 c-145 -62 -354 -223 -502 -389 -106 -119 -238 -355 -289 -517
-68 -215 -98 -475 -63 -542 37 -72 155 -68 185 5 7 16 14 61 16 100 7 131 37
305 65 367 5 11 12 31 16 45 4 14 24 61 45 105 107 229 305 448 523 579 l59
35 33 -29 c19 -16 51 -34 73 -40 25 -7 215 -10 537 -9 540 1 551 2 594 56 23
29 22 29 155 -61 211 -143 401 -385 491 -624 52 -136 77 -262 89 -446 5 -75
22 -112 61 -126 45 -18 82 -11 116 19 l33 30 -2 114 c-4 319 -133 657 -348
918 -95 114 -202 214 -310 287 -38 26 -72 49 -75 52 -6 6 -103 58 -137 75 -13
5 -23 15 -24 20 -4 43 -3 205 1 207 3 0 264 2 580 3 629 2 603 -1 662 62 40
42 48 74 48 199 0 84 3 114 13 115 6 0 254 1 550 1 599 0 640 4 621 52 -11 28
-68 52 -194 81 -16 4 -202 54 -290 78 -83 23 -297 96 -328 113 -39 20 -51 18
-144 -25 -120 -56 -220 -101 -224 -101 -2 0 -4 20 -4 45 0 143 -131 229 -257
171 -66 -31 -102 -95 -103 -183 0 -18 -2 -33 -4 -33 -2 0 -46 20 -97 44 -52
24 -122 56 -156 71 l-63 28 -82 -31 c-148 -55 -286 -98 -468 -146 -288 -75
-310 -84 -310 -123 0 -17 8 -25 33 -31 17 -5 283 -8 590 -8 l557 1 0 -82 0
-82 -1587 2 -1588 2 -1 70 c0 39 1 75 3 80 2 7 194 10 553 9 303 -1 564 1 582
5 17 4 36 14 42 24 19 31 -29 60 -150 92 -215 55 -329 86 -349 94 -11 5 -60
21 -110 36 -49 15 -125 41 -167 58 l-78 30 -50 -22 c-81 -35 -223 -100 -243
-112 -26 -14 -30 -7 -34 51 -3 54 -14 82 -47 118 -43 48 -117 69 -178 52z"/>
</g>
</svg>
